<mxfile host="app.diagrams.net" agent="Mozilla/5.0 (Macintosh; Intel Mac OS X 10_15_7) AppleWebKit/537.36 (KHTML, like Gecko) Chrome/130.0.0.0 Safari/537.36" version="24.8.6">
  <diagram name="Page-1" id="GW4Ji_nsaWwenUOUuL6K">
    <mxGraphModel dx="1468" dy="2024" grid="0" gridSize="10" guides="0" tooltips="1" connect="1" arrows="1" fold="1" page="1" pageScale="1" pageWidth="827" pageHeight="1169" background="#000000" math="0" shadow="0">
      <root>
        <mxCell id="0" />
        <mxCell id="1" parent="0" />
        <mxCell id="aIuP2M7PgsISakmLPer6-11" value="" style="rounded=0;whiteSpace=wrap;html=1;dashed=1;fillColor=#000000;strokeColor=#66FF66;" parent="1" vertex="1">
          <mxGeometry x="10" y="-1102" width="790" height="838" as="geometry" />
        </mxCell>
        <mxCell id="aIuP2M7PgsISakmLPer6-9" value="" style="rounded=0;whiteSpace=wrap;html=1;dashed=1;fillColor=#000000;strokeColor=#66FF66;" parent="1" vertex="1">
          <mxGeometry x="40" y="-962" width="730" height="686" as="geometry" />
        </mxCell>
        <mxCell id="aIuP2M7PgsISakmLPer6-20" style="edgeStyle=orthogonalEdgeStyle;rounded=0;orthogonalLoop=1;jettySize=auto;html=1;entryX=0.5;entryY=0;entryDx=0;entryDy=0;entryPerimeter=0;dashed=1;flowAnimation=1;strokeColor=#66FF66;strokeWidth=3;" parent="1" source="aIuP2M7PgsISakmLPer6-2" target="aIuP2M7PgsISakmLPer6-19" edge="1">
          <mxGeometry relative="1" as="geometry">
            <Array as="points">
              <mxPoint x="414" y="-542" />
              <mxPoint x="289" y="-542" />
            </Array>
          </mxGeometry>
        </mxCell>
        <mxCell id="aIuP2M7PgsISakmLPer6-23" style="edgeStyle=orthogonalEdgeStyle;rounded=0;orthogonalLoop=1;jettySize=auto;html=1;entryX=0.5;entryY=0;entryDx=0;entryDy=0;entryPerimeter=0;dashed=1;flowAnimation=1;strokeColor=#66FF66;strokeWidth=3;" parent="1" source="aIuP2M7PgsISakmLPer6-2" target="aIuP2M7PgsISakmLPer6-22" edge="1">
          <mxGeometry relative="1" as="geometry">
            <Array as="points">
              <mxPoint x="414" y="-542" />
              <mxPoint x="559" y="-542" />
            </Array>
          </mxGeometry>
        </mxCell>
        <mxCell id="aIuP2M7PgsISakmLPer6-14" style="edgeStyle=orthogonalEdgeStyle;rounded=0;orthogonalLoop=1;jettySize=auto;html=1;entryX=0.5;entryY=0;entryDx=0;entryDy=0;entryPerimeter=0;flowAnimation=1;dashed=1;strokeColor=#66FF66;strokeWidth=3;" parent="1" source="aIuP2M7PgsISakmLPer6-8" target="aIuP2M7PgsISakmLPer6-6" edge="1">
          <mxGeometry relative="1" as="geometry" />
        </mxCell>
        <mxCell id="aIuP2M7PgsISakmLPer6-12" style="edgeStyle=orthogonalEdgeStyle;rounded=0;orthogonalLoop=1;jettySize=auto;html=1;entryX=0.5;entryY=0;entryDx=0;entryDy=0;entryPerimeter=0;dashed=1;fixDash=0;flowAnimation=1;strokeColor=#66FF66;strokeWidth=3;" parent="1" source="aIuP2M7PgsISakmLPer6-10" target="aIuP2M7PgsISakmLPer6-8" edge="1">
          <mxGeometry relative="1" as="geometry" />
        </mxCell>
        <mxCell id="aIuP2M7PgsISakmLPer6-3" value="" style="rounded=0;whiteSpace=wrap;html=1;dashed=1;fillColor=#000000;strokeColor=#66FF66;" parent="1" vertex="1">
          <mxGeometry x="60" y="-702" width="690" height="140" as="geometry" />
        </mxCell>
        <mxCell id="aIuP2M7PgsISakmLPer6-2" value="&lt;font style=&quot;background-color: rgb(0, 0, 0);&quot; color=&quot;#ff00ff&quot;&gt;Evento&lt;/font&gt;&lt;div&gt;&lt;br&gt;&lt;/div&gt;" style="sketch=0;outlineConnect=0;fontColor=#232F3E;gradientColor=none;fillColor=#E7157B;strokeColor=none;dashed=0;verticalLabelPosition=bottom;verticalAlign=top;align=center;html=1;fontSize=12;fontStyle=0;aspect=fixed;pointerEvents=1;shape=mxgraph.aws4.event;" parent="1" vertex="1">
          <mxGeometry x="375" y="-671" width="78" height="78" as="geometry" />
        </mxCell>
        <mxCell id="aIuP2M7PgsISakmLPer6-1" value="&lt;font style=&quot;background-color: rgb(0, 0, 0);&quot; color=&quot;#ff00ff&quot;&gt;Event Bus&lt;/font&gt;" style="sketch=0;points=[[0,0,0],[0.25,0,0],[0.5,0,0],[0.75,0,0],[1,0,0],[0,1,0],[0.25,1,0],[0.5,1,0],[0.75,1,0],[1,1,0],[0,0.25,0],[0,0.5,0],[0,0.75,0],[1,0.25,0],[1,0.5,0],[1,0.75,0]];outlineConnect=0;fontColor=#232F3E;fillColor=#E7157B;strokeColor=#ffffff;dashed=0;verticalLabelPosition=bottom;verticalAlign=top;align=center;html=1;fontSize=12;fontStyle=0;aspect=fixed;shape=mxgraph.aws4.resourceIcon;resIcon=mxgraph.aws4.eventbridge;" parent="1" vertex="1">
          <mxGeometry x="100" y="-742" width="78" height="78" as="geometry" />
        </mxCell>
        <mxCell id="aIuP2M7PgsISakmLPer6-16" style="edgeStyle=orthogonalEdgeStyle;rounded=0;orthogonalLoop=1;jettySize=auto;html=1;dashed=1;flowAnimation=1;strokeColor=#66FF66;strokeWidth=3;" parent="1" source="aIuP2M7PgsISakmLPer6-5" target="aIuP2M7PgsISakmLPer6-2" edge="1">
          <mxGeometry relative="1" as="geometry" />
        </mxCell>
        <mxCell id="aIuP2M7PgsISakmLPer6-28" style="edgeStyle=orthogonalEdgeStyle;rounded=0;orthogonalLoop=1;jettySize=auto;html=1;entryX=0;entryY=0.5;entryDx=0;entryDy=0;endArrow=none;endFill=0;strokeColor=#FF00FF;strokeWidth=1;" parent="1" source="aIuP2M7PgsISakmLPer6-5" target="aIuP2M7PgsISakmLPer6-27" edge="1">
          <mxGeometry relative="1" as="geometry">
            <Array as="points">
              <mxPoint x="289" y="-907" />
            </Array>
          </mxGeometry>
        </mxCell>
        <mxCell id="aIuP2M7PgsISakmLPer6-5" value="" style="sketch=0;points=[[0,0,0],[0.25,0,0],[0.5,0,0],[0.75,0,0],[1,0,0],[0,1,0],[0.25,1,0],[0.5,1,0],[0.75,1,0],[1,1,0],[0,0.25,0],[0,0.5,0],[0,0.75,0],[1,0.25,0],[1,0.5,0],[1,0.75,0]];outlineConnect=0;fontColor=#232F3E;fillColor=#ED7100;strokeColor=#ffffff;dashed=0;verticalLabelPosition=bottom;verticalAlign=top;align=center;html=1;fontSize=12;fontStyle=0;aspect=fixed;shape=mxgraph.aws4.resourceIcon;resIcon=mxgraph.aws4.lambda;" parent="1" vertex="1">
          <mxGeometry x="250" y="-872" width="78" height="78" as="geometry" />
        </mxCell>
        <mxCell id="aIuP2M7PgsISakmLPer6-15" style="edgeStyle=orthogonalEdgeStyle;rounded=0;orthogonalLoop=1;jettySize=auto;html=1;dashed=1;flowAnimation=1;strokeColor=#66FF66;strokeWidth=3;" parent="1" source="aIuP2M7PgsISakmLPer6-6" target="aIuP2M7PgsISakmLPer6-5" edge="1">
          <mxGeometry relative="1" as="geometry" />
        </mxCell>
        <mxCell id="eQMeAj0FzXA-GN-koBDQ-3" value="" style="edgeStyle=orthogonalEdgeStyle;rounded=0;orthogonalLoop=1;jettySize=auto;html=1;" parent="1" source="aIuP2M7PgsISakmLPer6-6" target="aIuP2M7PgsISakmLPer6-1" edge="1">
          <mxGeometry relative="1" as="geometry" />
        </mxCell>
        <mxCell id="aIuP2M7PgsISakmLPer6-6" value="&lt;font color=&quot;#ff00ff&quot; style=&quot;background-color: rgb(0, 0, 0);&quot;&gt;cadastro.html&lt;/font&gt;&lt;div&gt;&lt;br&gt;&lt;/div&gt;" style="sketch=0;points=[[0,0,0],[0.25,0,0],[0.5,0,0],[0.75,0,0],[1,0,0],[0,1,0],[0.25,1,0],[0.5,1,0],[0.75,1,0],[1,1,0],[0,0.25,0],[0,0.5,0],[0,0.75,0],[1,0.25,0],[1,0.5,0],[1,0.75,0]];outlineConnect=0;fontColor=#232F3E;fillColor=#7AA116;strokeColor=#ffffff;dashed=0;verticalLabelPosition=bottom;verticalAlign=top;align=center;html=1;fontSize=12;fontStyle=0;aspect=fixed;shape=mxgraph.aws4.resourceIcon;resIcon=mxgraph.aws4.s3;" parent="1" vertex="1">
          <mxGeometry x="100" y="-872" width="78" height="78" as="geometry" />
        </mxCell>
        <mxCell id="aIuP2M7PgsISakmLPer6-8" value="&lt;span style=&quot;background-color: rgb(0, 0, 0);&quot;&gt;&lt;font color=&quot;#ff00ff&quot;&gt;CDN&lt;/font&gt;&lt;/span&gt;" style="sketch=0;points=[[0,0,0],[0.25,0,0],[0.5,0,0],[0.75,0,0],[1,0,0],[0,1,0],[0.25,1,0],[0.5,1,0],[0.75,1,0],[1,1,0],[0,0.25,0],[0,0.5,0],[0,0.75,0],[1,0.25,0],[1,0.5,0],[1,0.75,0]];outlineConnect=0;fontColor=#232F3E;fillColor=#8C4FFF;strokeColor=#ffffff;dashed=0;verticalLabelPosition=bottom;verticalAlign=top;align=center;html=1;fontSize=12;fontStyle=0;aspect=fixed;shape=mxgraph.aws4.resourceIcon;resIcon=mxgraph.aws4.cloudfront;" parent="1" vertex="1">
          <mxGeometry x="100" y="-1002" width="78" height="78" as="geometry" />
        </mxCell>
        <mxCell id="aIuP2M7PgsISakmLPer6-10" value="&lt;font color=&quot;#ff00ff&quot; style=&quot;background-color: rgb(0, 0, 0);&quot;&gt;WAF&lt;/font&gt;" style="sketch=0;points=[[0,0,0],[0.25,0,0],[0.5,0,0],[0.75,0,0],[1,0,0],[0,1,0],[0.25,1,0],[0.5,1,0],[0.75,1,0],[1,1,0],[0,0.25,0],[0,0.5,0],[0,0.75,0],[1,0.25,0],[1,0.5,0],[1,0.75,0]];outlineConnect=0;fontColor=#232F3E;fillColor=#DD344C;strokeColor=#ffffff;dashed=0;verticalLabelPosition=bottom;verticalAlign=top;align=center;html=1;fontSize=12;fontStyle=0;aspect=fixed;shape=mxgraph.aws4.resourceIcon;resIcon=mxgraph.aws4.waf;" parent="1" vertex="1">
          <mxGeometry x="100" y="-1140" width="78" height="78" as="geometry" />
        </mxCell>
        <mxCell id="aIuP2M7PgsISakmLPer6-17" value="&lt;font style=&quot;background-color: rgb(0, 0, 0);&quot; color=&quot;#ff00ff&quot;&gt;Cadastro&lt;/font&gt;" style="sketch=0;points=[[0,0,0],[0.25,0,0],[0.5,0,0],[0.75,0,0],[1,0,0],[0,1,0],[0.25,1,0],[0.5,1,0],[0.75,1,0],[1,1,0],[0,0.25,0],[0,0.5,0],[0,0.75,0],[1,0.25,0],[1,0.5,0],[1,0.75,0]];outlineConnect=0;fontColor=#232F3E;fillColor=#C925D1;strokeColor=#ffffff;dashed=0;verticalLabelPosition=bottom;verticalAlign=top;align=center;html=1;fontSize=12;fontStyle=0;aspect=fixed;shape=mxgraph.aws4.resourceIcon;resIcon=mxgraph.aws4.dynamodb;" parent="1" vertex="1">
          <mxGeometry x="250" y="-382" width="78" height="78" as="geometry" />
        </mxCell>
        <mxCell id="aIuP2M7PgsISakmLPer6-19" value="" style="sketch=0;points=[[0,0,0],[0.25,0,0],[0.5,0,0],[0.75,0,0],[1,0,0],[0,1,0],[0.25,1,0],[0.5,1,0],[0.75,1,0],[1,1,0],[0,0.25,0],[0,0.5,0],[0,0.75,0],[1,0.25,0],[1,0.5,0],[1,0.75,0]];outlineConnect=0;fontColor=#232F3E;fillColor=#ED7100;strokeColor=#ffffff;dashed=0;verticalLabelPosition=bottom;verticalAlign=top;align=center;html=1;fontSize=12;fontStyle=0;aspect=fixed;shape=mxgraph.aws4.resourceIcon;resIcon=mxgraph.aws4.lambda;" parent="1" vertex="1">
          <mxGeometry x="250" y="-522" width="78" height="78" as="geometry" />
        </mxCell>
        <mxCell id="aIuP2M7PgsISakmLPer6-21" style="edgeStyle=orthogonalEdgeStyle;rounded=0;orthogonalLoop=1;jettySize=auto;html=1;entryX=0.5;entryY=0;entryDx=0;entryDy=0;entryPerimeter=0;dashed=1;flowAnimation=1;strokeColor=#66FF66;strokeWidth=3;" parent="1" source="aIuP2M7PgsISakmLPer6-19" target="aIuP2M7PgsISakmLPer6-17" edge="1">
          <mxGeometry relative="1" as="geometry" />
        </mxCell>
        <mxCell id="aIuP2M7PgsISakmLPer6-25" style="edgeStyle=orthogonalEdgeStyle;rounded=0;orthogonalLoop=1;jettySize=auto;html=1;dashed=1;flowAnimation=1;strokeColor=#66FF66;strokeWidth=3;" parent="1" source="aIuP2M7PgsISakmLPer6-22" target="aIuP2M7PgsISakmLPer6-24" edge="1">
          <mxGeometry relative="1" as="geometry" />
        </mxCell>
        <mxCell id="aIuP2M7PgsISakmLPer6-22" value="" style="sketch=0;points=[[0,0,0],[0.25,0,0],[0.5,0,0],[0.75,0,0],[1,0,0],[0,1,0],[0.25,1,0],[0.5,1,0],[0.75,1,0],[1,1,0],[0,0.25,0],[0,0.5,0],[0,0.75,0],[1,0.25,0],[1,0.5,0],[1,0.75,0]];outlineConnect=0;fontColor=#232F3E;fillColor=#ED7100;strokeColor=#ffffff;dashed=0;verticalLabelPosition=bottom;verticalAlign=top;align=center;html=1;fontSize=12;fontStyle=0;aspect=fixed;shape=mxgraph.aws4.resourceIcon;resIcon=mxgraph.aws4.lambda;" parent="1" vertex="1">
          <mxGeometry x="520" y="-522" width="78" height="78" as="geometry" />
        </mxCell>
        <mxCell id="aIuP2M7PgsISakmLPer6-24" value="&lt;font style=&quot;background-color: rgb(0, 0, 0);&quot; color=&quot;#ff00ff&quot;&gt;Email de Boas Vindas&lt;/font&gt;" style="sketch=0;points=[[0,0,0],[0.25,0,0],[0.5,0,0],[0.75,0,0],[1,0,0],[0,1,0],[0.25,1,0],[0.5,1,0],[0.75,1,0],[1,1,0],[0,0.25,0],[0,0.5,0],[0,0.75,0],[1,0.25,0],[1,0.5,0],[1,0.75,0]];outlineConnect=0;fontColor=#232F3E;fillColor=#DD344C;strokeColor=#ffffff;dashed=0;verticalLabelPosition=bottom;verticalAlign=top;align=center;html=1;fontSize=12;fontStyle=0;aspect=fixed;shape=mxgraph.aws4.resourceIcon;resIcon=mxgraph.aws4.simple_email_service;" parent="1" vertex="1">
          <mxGeometry x="520" y="-382" width="78" height="78" as="geometry" />
        </mxCell>
        <mxCell id="aIuP2M7PgsISakmLPer6-27" value="&lt;h1 style=&quot;margin-top: 0px;&quot;&gt;&lt;font color=&quot;#66ff66&quot; style=&quot;font-size: 13px;&quot;&gt;Valida o Recaptch &amp;amp; Publica o Evento&lt;/font&gt;&lt;/h1&gt;" style="text;html=1;whiteSpace=wrap;overflow=hidden;rounded=0;align=center;strokeColor=#FF00FF;strokeWidth=1;" parent="1" vertex="1">
          <mxGeometry x="390" y="-932" width="139" height="70" as="geometry" />
        </mxCell>
      </root>
    </mxGraphModel>
  </diagram>
</mxfile>
